<svg preserveAspectRatio="none" overflow="visible" style="display: block;" width="16" height="16" viewBox="0 0 16 16" fill="none" xmlns="http://www.w3.org/2000/svg">
<g id="SVG &#194;&#183; grid">
<path id="Vector" d="M6 2.66667H3.33333C2.96514 2.66667 2.66667 2.96514 2.66667 3.33333V6C2.66667 6.36819 2.96514 6.66667 3.33333 6.66667H6C6.36819 6.66667 6.66667 6.36819 6.66667 6V3.33333C6.66667 2.96514 6.36819 2.66667 6 2.66667Z" stroke="#626B59" stroke-width="1.5" stroke-linecap="round" stroke-linejoin="round"/>
<path id="Vector_2" d="M12.6667 2.66667H10C9.63181 2.66667 9.33333 2.96514 9.33333 3.33333V6C9.33333 6.36819 9.63181 6.66667 10 6.66667H12.6667C13.0349 6.66667 13.3333 6.36819 13.3333 6V3.33333C13.3333 2.96514 13.0349 2.66667 12.6667 2.66667Z" stroke="#626B59" stroke-width="1.5" stroke-linecap="round" stroke-linejoin="round"/>
<path id="Vector_3" d="M6 9.33333H3.33333C2.96514 9.33333 2.66667 9.63181 2.66667 10V12.6667C2.66667 13.0349 2.96514 13.3333 3.33333 13.3333H6C6.36819 13.3333 6.66667 13.0349 6.66667 12.6667V10C6.66667 9.63181 6.36819 9.33333 6 9.33333Z" stroke="#626B59" stroke-width="1.5" stroke-linecap="round" stroke-linejoin="round"/>
<path id="Vector_4" d="M12.6667 9.33333H10C9.63181 9.33333 9.33333 9.63181 9.33333 10V12.6667C9.33333 13.0349 9.63181 13.3333 10 13.3333H12.6667C13.0349 13.3333 13.3333 13.0349 13.3333 12.6667V10C13.3333 9.63181 13.0349 9.33333 12.6667 9.33333Z" stroke="#626B59" stroke-width="1.5" stroke-linecap="round" stroke-linejoin="round"/>
</g>
</svg>
